<?xml version="1.0" standalone="no"?>
<!DOCTYPE svg PUBLIC "-//W3C//DTD SVG 20010904//EN"
 "http://www.w3.org/TR/2001/REC-SVG-20010904/DTD/svg10.dtd">
<svg version="1.0" xmlns="http://www.w3.org/2000/svg"
 width="1024.000000pt" height="1024.000000pt" viewBox="0 0 1024.000000 1024.000000"
 preserveAspectRatio="xMidYMid meet">
<metadata>
Created by potrace 1.11, written by Peter Selinger 2001-2013
</metadata>
<g transform="translate(0.000000,1024.000000) scale(0.100000,-0.100000)"
fill="#000000" stroke="none">
<path d="M2355 10233 c-81 -7 -268 -36 -325 -49 -14 -3 -36 -8 -50 -10 -14 -3
-65 -16 -115 -30 -759 -216 -1387 -779 -1677 -1503 -61 -151 -123 -362 -142
-481 -3 -19 -11 -66 -17 -105 -6 -38 -13 -81 -17 -95 -4 -14 -7 -1276 -8
-2805 -2 -2309 0 -2796 11 -2875 8 -52 16 -111 19 -131 50 -361 234 -797 468
-1109 178 -238 408 -457 633 -604 156 -102 149 -98 295 -171 224 -111 466
-189 710 -229 52 -8 111 -18 130 -23 50 -10 5549 -13 5640 -3 131 16 163 20
240 35 132 25 212 45 346 90 758 253 1363 861 1615 1625 29 88 73 259 83 320
3 19 8 49 11 65 11 67 15 93 22 160 10 90 10 5526 1 5625 -71 711 -438 1362
-1013 1797 -200 152 -558 340 -721 379 -16 4 -33 9 -39 13 -5 3 -14 7 -20 8
-5 1 -60 15 -122 32 -61 16 -129 32 -150 35 -21 3 -47 7 -59 10 -12 2 -45 7
-74 11 -29 4 -62 10 -74 13 -22 7 -5530 12 -5601 5z"/>
</g>
</svg>
